<svg xmlns="http://www.w3.org/2000/svg" xmlns:xlink="http://www.w3.org/1999/xlink" xmlns:lucid="lucid" width="1401" height="1221"><g transform="translate(-679.5 -79.5)" lucid:page-tab-id="0_0"><path d="M500 0h2000v1500H500z" fill="#fff"/><path d="M1233.45 825a5 5 0 0 1 5-5h270a5 5 0 0 1 5 5v350a5 5 0 0 1-5 5h-270a5 5 0 0 1-5-5z" fill="#fff"/><path d="M1233.45 860v-35a5 5 0 0 1 5-5h270a5 5 0 0 1 5 5v35" fill="#dedeff"/><path d="M1233.45 825a5 5 0 0 1 5-5h270a5 5 0 0 1 5 5v350a5 5 0 0 1-5 5h-270a5 5 0 0 1-5-5zM1233.45 860h280M1373.45 860v320" stroke="#282c33" fill="none"/><use xlink:href="#a" transform="matrix(1,0,0,1,1243.4542452036949,820) translate(0 23.6)"/><use xlink:href="#b" transform="matrix(1,0,0,1,1238.4542452036949,862.5) translate(0 17.1)"/><use xlink:href="#c" transform="matrix(1,0,0,1,1378.4542452036949,862.5) translate(0 17.1)"/><use xlink:href="#d" transform="matrix(1,0,0,1,1238.4542452036949,894.5) translate(0 17.1)"/><use xlink:href="#e" transform="matrix(1,0,0,1,1378.4542452036949,894.5) translate(0 17.1)"/><use xlink:href="#f" transform="matrix(1,0,0,1,1238.4542452036949,926.5) translate(0 17.1)"/><use xlink:href="#e" transform="matrix(1,0,0,1,1378.4542452036949,926.5) translate(0 17.1)"/><use xlink:href="#g" transform="matrix(1,0,0,1,1238.4542452036949,958.5) translate(0 17.1)"/><use xlink:href="#e" transform="matrix(1,0,0,1,1378.4542452036949,958.5) translate(0 17.1)"/><use xlink:href="#h" transform="matrix(1,0,0,1,1238.4542452036949,990.5) translate(0 17.1)"/><use xlink:href="#e" transform="matrix(1,0,0,1,1378.4542452036949,990.5) translate(0 17.1)"/><use xlink:href="#i" transform="matrix(1,0,0,1,1238.4542452036949,1022.5) translate(0 17.1)"/><use xlink:href="#e" transform="matrix(1,0,0,1,1378.4542452036949,1022.5) translate(0 17.1)"/><use xlink:href="#j" transform="matrix(1,0,0,1,1238.4542452036949,1054.5) translate(0 17.1)"/><use xlink:href="#k" transform="matrix(1,0,0,1,1378.4542452036949,1054.5) translate(0 17.1)"/><use xlink:href="#l" transform="matrix(1,0,0,1,1238.4542452036949,1086.5) translate(0 17.1)"/><use xlink:href="#m" transform="matrix(1,0,0,1,1378.4542452036949,1086.5) translate(0 17.1)"/><use xlink:href="#n" transform="matrix(1,0,0,1,1238.4542452036949,1118.5) translate(0 17.1)"/><use xlink:href="#m" transform="matrix(1,0,0,1,1378.4542452036949,1118.5) translate(0 17.1)"/><use xlink:href="#o" transform="matrix(1,0,0,1,1238.4542452036949,1150.5) translate(0 17.1)"/><use xlink:href="#m" transform="matrix(1,0,0,1,1378.4542452036949,1150.5) translate(0 17.1)"/><path d="M800 205a5 5 0 0 1 5-5h270a5 5 0 0 1 5 5v158a5 5 0 0 1-5 5H805a5 5 0 0 1-5-5z" fill="#fff"/><path d="M800 240v-35a5 5 0 0 1 5-5h270a5 5 0 0 1 5 5v35" fill="#dedeff"/><path d="M800 205a5 5 0 0 1 5-5h270a5 5 0 0 1 5 5v158a5 5 0 0 1-5 5H805a5 5 0 0 1-5-5zM800 240h280M940 240v128" stroke="#282c33" fill="none"/><use xlink:href="#p" transform="matrix(1,0,0,1,810,200) translate(0 23.6)"/><use xlink:href="#b" transform="matrix(1,0,0,1,805,242.5) translate(0 17.1)"/><use xlink:href="#c" transform="matrix(1,0,0,1,945,242.5) translate(0 17.1)"/><use xlink:href="#q" transform="matrix(1,0,0,1,805,274.5) translate(0 17.1)"/><use xlink:href="#e" transform="matrix(1,0,0,1,945,274.5) translate(0 17.1)"/><use xlink:href="#n" transform="matrix(1,0,0,1,805,306.5) translate(0 17.1)"/><use xlink:href="#m" transform="matrix(1,0,0,1,945,306.5) translate(0 17.1)"/><use xlink:href="#o" transform="matrix(1,0,0,1,805,338.5) translate(0 17.1)"/><use xlink:href="#m" transform="matrix(1,0,0,1,945,338.5) translate(0 17.1)"/><path d="M1233.45 485a5 5 0 0 1 5-5h270a5 5 0 0 1 5 5v222a5 5 0 0 1-5 5h-270a5 5 0 0 1-5-5z" fill="#fff"/><path d="M1233.45 520v-35a5 5 0 0 1 5-5h270a5 5 0 0 1 5 5v35" fill="#dedeff"/><path d="M1233.45 485a5 5 0 0 1 5-5h270a5 5 0 0 1 5 5v222a5 5 0 0 1-5 5h-270a5 5 0 0 1-5-5zM1233.45 520h280M1373.45 520v192" stroke="#282c33" fill="none"/><use xlink:href="#r" transform="matrix(1,0,0,1,1243.4542452036949,480) translate(0 23.6)"/><use xlink:href="#b" transform="matrix(1,0,0,1,1238.4542452036949,522.5) translate(0 17.1)"/><use xlink:href="#c" transform="matrix(1,0,0,1,1378.4542452036949,522.5) translate(0 17.1)"/><use xlink:href="#s" transform="matrix(1,0,0,1,1238.4542452036949,554.5) translate(0 17.1)"/><use xlink:href="#c" transform="matrix(1,0,0,1,1378.4542452036949,554.5) translate(0 17.1)"/><use xlink:href="#t" transform="matrix(1,0,0,1,1238.4542452036949,586.5) translate(0 17.1)"/><use xlink:href="#c" transform="matrix(1,0,0,1,1378.4542452036949,586.5) translate(0 17.1)"/><use xlink:href="#u" transform="matrix(1,0,0,1,1238.4542452036949,618.5) translate(0 17.1)"/><use xlink:href="#e" transform="matrix(1,0,0,1,1378.4542452036949,618.5) translate(0 17.1)"/><use xlink:href="#n" transform="matrix(1,0,0,1,1238.4542452036949,650.5) translate(0 17.1)"/><use xlink:href="#m" transform="matrix(1,0,0,1,1378.4542452036949,650.5) translate(0 17.1)"/><use xlink:href="#o" transform="matrix(1,0,0,1,1238.4542452036949,682.5) translate(0 17.1)"/><use xlink:href="#m" transform="matrix(1,0,0,1,1378.4542452036949,682.5) translate(0 17.1)"/><path d="M1666.9 485a5 5 0 0 1 5-5h270a5 5 0 0 1 5 5v254a5 5 0 0 1-5 5h-270a5 5 0 0 1-5-5z" fill="#fff"/><path d="M1666.9 520v-35a5 5 0 0 1 5-5h270a5 5 0 0 1 5 5v35" fill="#dedeff"/><path d="M1666.9 485a5 5 0 0 1 5-5h270a5 5 0 0 1 5 5v254a5 5 0 0 1-5 5h-270a5 5 0 0 1-5-5zM1666.9 520h280M1806.9 520v224" stroke="#282c33" fill="none"/><use xlink:href="#v" transform="matrix(1,0,0,1,1676.9084904073898,480) translate(0 23.6)"/><use xlink:href="#b" transform="matrix(1,0,0,1,1671.9084904073898,522.5) translate(0 17.1)"/><use xlink:href="#c" transform="matrix(1,0,0,1,1811.9084904073898,522.5) translate(0 17.1)"/><use xlink:href="#w" transform="matrix(1,0,0,1,1671.9084904073898,554.5) translate(0 17.1)"/><use xlink:href="#c" transform="matrix(1,0,0,1,1811.9084904073898,554.5) translate(0 17.1)"/><use xlink:href="#s" transform="matrix(1,0,0,1,1671.9084904073898,586.5) translate(0 17.1)"/><use xlink:href="#c" transform="matrix(1,0,0,1,1811.9084904073898,586.5) translate(0 17.1)"/><use xlink:href="#x" transform="matrix(1,0,0,1,1671.9084904073898,618.5) translate(0 17.1)"/><use xlink:href="#e" transform="matrix(1,0,0,1,1811.9084904073898,618.5) translate(0 17.1)"/><use xlink:href="#y" transform="matrix(1,0,0,1,1671.9084904073898,650.5) translate(0 17.1)"/><use xlink:href="#z" transform="matrix(1,0,0,1,1811.9084904073898,650.5) translate(0 17.1)"/><use xlink:href="#n" transform="matrix(1,0,0,1,1671.9084904073898,682.5) translate(0 17.1)"/><use xlink:href="#m" transform="matrix(1,0,0,1,1811.9084904073898,682.5) translate(0 17.1)"/><use xlink:href="#o" transform="matrix(1,0,0,1,1671.9084904073898,714.5) translate(0 17.1)"/><use xlink:href="#m" transform="matrix(1,0,0,1,1811.9084904073898,714.5) translate(0 17.1)"/><path d="M800 829a5 5 0 0 1 5-5h270a5 5 0 0 1 5 5v254a5 5 0 0 1-5 5H805a5 5 0 0 1-5-5z" fill="#fff"/><path d="M800 864v-35a5 5 0 0 1 5-5h270a5 5 0 0 1 5 5v35" fill="#dedeff"/><path d="M800 829a5 5 0 0 1 5-5h270a5 5 0 0 1 5 5v254a5 5 0 0 1-5 5H805a5 5 0 0 1-5-5zM800 864h280M940 864v224" stroke="#282c33" fill="none"/><use xlink:href="#A" transform="matrix(1,0,0,1,810,824) translate(0 23.6)"/><use xlink:href="#b" transform="matrix(1,0,0,1,805,866.5) translate(0 17.1)"/><use xlink:href="#c" transform="matrix(1,0,0,1,945,866.5) translate(0 17.1)"/><use xlink:href="#t" transform="matrix(1,0,0,1,805,898.5) translate(0 17.1)"/><use xlink:href="#c" transform="matrix(1,0,0,1,945,898.5) translate(0 17.1)"/><use xlink:href="#s" transform="matrix(1,0,0,1,805,930.5) translate(0 17.1)"/><use xlink:href="#c" transform="matrix(1,0,0,1,945,930.5) translate(0 17.1)"/><use xlink:href="#B" transform="matrix(1,0,0,1,805,962.5) translate(0 17.1)"/><use xlink:href="#e" transform="matrix(1,0,0,1,945,962.5) translate(0 17.1)"/><use xlink:href="#C" transform="matrix(1,0,0,1,805,994.5) translate(0 17.1)"/><use xlink:href="#z" transform="matrix(1,0,0,1,945,994.5) translate(0 17.1)"/><use xlink:href="#n" transform="matrix(1,0,0,1,805,1026.5) translate(0 17.1)"/><use xlink:href="#m" transform="matrix(1,0,0,1,945,1026.5) translate(0 17.1)"/><use xlink:href="#o" transform="matrix(1,0,0,1,805,1058.5) translate(0 17.1)"/><use xlink:href="#m" transform="matrix(1,0,0,1,945,1058.5) translate(0 17.1)"/><path d="M800 485a5 5 0 0 1 5-5h270a5 5 0 0 1 5 5v222a5 5 0 0 1-5 5H805a5 5 0 0 1-5-5z" fill="#fff"/><path d="M800 520v-35a5 5 0 0 1 5-5h270a5 5 0 0 1 5 5v35" fill="#dedeff"/><path d="M800 485a5 5 0 0 1 5-5h270a5 5 0 0 1 5 5v222a5 5 0 0 1-5 5H805a5 5 0 0 1-5-5zM800 520h280M940 520v192" stroke="#282c33" fill="none"/><use xlink:href="#D" transform="matrix(1,0,0,1,810,480) translate(0 23.6)"/><use xlink:href="#b" transform="matrix(1,0,0,1,805,522.5) translate(0 17.1)"/><use xlink:href="#c" transform="matrix(1,0,0,1,945,522.5) translate(0 17.1)"/><use xlink:href="#E" transform="matrix(1,0,0,1,805,554.5) translate(0 17.1)"/><use xlink:href="#c" transform="matrix(1,0,0,1,945,554.5) translate(0 17.1)"/><use xlink:href="#q" transform="matrix(1,0,0,1,805,586.5) translate(0 17.1)"/><use xlink:href="#c" transform="matrix(1,0,0,1,945,586.5) translate(0 17.1)"/><use xlink:href="#F" transform="matrix(1,0,0,1,805,618.5) translate(0 17.1)"/><use xlink:href="#e" transform="matrix(1,0,0,1,945,618.5) translate(0 17.1)"/><use xlink:href="#n" transform="matrix(1,0,0,1,805,650.5) translate(0 17.1)"/><use xlink:href="#m" transform="matrix(1,0,0,1,945,650.5) translate(0 17.1)"/><use xlink:href="#o" transform="matrix(1,0,0,1,805,682.5) translate(0 17.1)"/><use xlink:href="#m" transform="matrix(1,0,0,1,945,682.5) translate(0 17.1)"/><path d="M940 388.5v71.6" stroke="#3a414a" fill="none"/><path d="M930 388.5h20M940 368.5v20" stroke="#3a414a" fill="#fff"/><path d="M930 479.28l10-20 10 20" stroke="#3a414a" fill="#fff" fill-opacity="0"/><path d="M940 479.28v-20" stroke="#3a414a" fill="#fff"/><path d="M1100.5 600h113.04" stroke="#3a414a" fill="none"/><path d="M1100.5 610v-20M1080.5 600h20" stroke="#3a414a" fill="#fff"/><path d="M1232.73 610l-20-10 20-10" stroke="#3a414a" fill="#fff" fill-opacity="0"/><path d="M1232.73 600h-20" stroke="#3a414a" fill="#fff"/><path d="M1533.95 600h112.44" stroke="#3a414a" fill="none"/><path d="M1533.95 610v-20M1513.95 600h20M1646.4 590v20M1666.4 600h-20" stroke="#3a414a" fill="#fff"/><path d="M940 732.5v71.6" stroke="#3a414a" fill="none"/><path d="M930 732.5h20M940 712.5v20" stroke="#3a414a" fill="#fff"/><path d="M930 823.28l10-20 10 20" stroke="#3a414a" fill="#fff" fill-opacity="0"/><path d="M940 823.28v-20" stroke="#3a414a" fill="#fff"/><path d="M1533.95 972h260.96a12 12 0 0 0 12-12V763.9" stroke="#3a414a" fill="none"/><path d="M1533.95 982v-20M1513.95 972h20" stroke="#3a414a" fill="#fff"/><path d="M1816.9 744.72l-10 20-10-20" stroke="#3a414a" fill="#fff" fill-opacity="0"/><path d="M1806.9 744.72v20" stroke="#3a414a" fill="#fff"/><path d="M1212.95 972h-54.2a2.04 2.04 0 0 0-2.02 2.04 2.04 2.04 0 0 1-2.04 2.03h-54.8" stroke="#3a414a" fill="none"/><path d="M1212.95 962v20M1232.95 972h-20" stroke="#3a414a" fill="#fff"/><path d="M1080.72 966.07l20 10-20 10" stroke="#3a414a" fill="#fff" fill-opacity="0"/><path d="M1080.72 976.07h20" stroke="#3a414a" fill="#fff"/><path d="M1373.45 799.5v-67.6" stroke="#3a414a" fill="none"/><path d="M1383.45 799.5h-20M1373.45 819.5v-20" stroke="#3a414a" fill="#fff"/><path d="M1383.45 712.72l-10 20-10-20" stroke="#3a414a" fill="#fff" fill-opacity="0"/><path d="M1373.45 712.72v20" stroke="#3a414a" fill="#fff"/><path d="M700 108a8 8 0 0 1 8-8h1344a8 8 0 0 1 8 8v1164a8 8 0 0 1-8 8H708a8 8 0 0 1-8-8z" stroke="#3a414a" fill-opacity="0"/><defs><path fill="#333" d="M232-93c-1 65-40 97-104 97C67 4 28-28 28-90v-158h33c8 89-33 224 67 224 102 0 64-133 71-224h33v155" id="G"/><path fill="#333" d="M135-143c-3-34-86-38-87 0 15 53 115 12 119 90S17 21 10-45l28-5c4 36 97 45 98 0-10-56-113-15-118-90-4-57 82-63 122-42 12 7 21 19 24 35" id="H"/><path fill="#333" d="M100-194c63 0 86 42 84 106H49c0 40 14 67 53 68 26 1 43-12 49-29l28 8c-11 28-37 45-77 45C44 4 14-33 15-96c1-61 26-98 85-98zm52 81c6-60-76-77-97-28-3 7-6 17-6 28h103" id="I"/><path fill="#333" d="M114-163C36-179 61-72 57 0H25l-1-190h30c1 12-1 29 2 39 6-27 23-49 58-41v29" id="J"/><g id="a"><use transform="matrix(0.05,0,0,0.05,0,0)" xlink:href="#G"/><use transform="matrix(0.05,0,0,0.05,12.950000000000001,0)" xlink:href="#H"/><use transform="matrix(0.05,0,0,0.05,21.950000000000003,0)" xlink:href="#I"/><use transform="matrix(0.05,0,0,0.05,31.950000000000003,0)" xlink:href="#J"/></g><path fill="#333" d="M-5 72V49h209v23H-5" id="K"/><path fill="#333" d="M24-231v-30h32v30H24zM24 0v-190h32V0H24" id="L"/><path fill="#333" d="M85-194c31 0 48 13 60 33l-1-100h32l1 261h-30c-2-10 0-23-3-31C134-8 116 4 85 4 32 4 16-35 15-94c0-66 23-100 70-100zm9 24c-40 0-46 34-46 75 0 40 6 74 45 74 42 0 51-32 51-76 0-42-9-74-50-73" id="M"/><g id="b"><use transform="matrix(0.05,0,0,0.05,0,0)" xlink:href="#K"/><use transform="matrix(0.05,0,0,0.05,10,0)" xlink:href="#L"/><use transform="matrix(0.05,0,0,0.05,13.949999999999998,0)" xlink:href="#M"/></g><path fill="#333" d="M140-251c81 0 123 46 123 126C263-46 219 4 140 4 59 4 17-45 17-125s42-126 123-126zm0 227c63 0 89-41 89-101s-29-99-89-99c-61 0-89 39-89 99S79-25 140-24" id="N"/><path fill="#333" d="M115-194c53 0 69 39 70 98 0 66-23 100-70 100C84 3 66-7 56-30L54 0H23l1-261h32v101c10-23 28-34 59-34zm-8 174c40 0 45-34 45-75 0-40-5-75-45-74-42 0-51 32-51 76 0 43 10 73 51 73" id="O"/><path fill="#333" d="M24-231v-30h32v30H24zM-9 49c24 4 33-6 33-30v-209h32V24c2 40-23 58-65 49V49" id="P"/><path fill="#333" d="M96-169c-40 0-48 33-48 73s9 75 48 75c24 0 41-14 43-38l32 2c-6 37-31 61-74 61-59 0-76-41-82-99-10-93 101-131 147-64 4 7 5 14 7 22l-32 3c-4-21-16-35-41-35" id="Q"/><path fill="#333" d="M59-47c-2 24 18 29 38 22v24C64 9 27 4 27-40v-127H5v-23h24l9-43h21v43h35v23H59v120" id="R"/><path fill="#333" d="M33 0v-248h34V0H33" id="S"/><g id="c"><use transform="matrix(0.05,0,0,0.05,0,0)" xlink:href="#N"/><use transform="matrix(0.05,0,0,0.05,14,0)" xlink:href="#O"/><use transform="matrix(0.05,0,0,0.05,24,0)" xlink:href="#P"/><use transform="matrix(0.05,0,0,0.05,27.950000000000003,0)" xlink:href="#I"/><use transform="matrix(0.05,0,0,0.05,37.95,0)" xlink:href="#Q"/><use transform="matrix(0.05,0,0,0.05,46.95,0)" xlink:href="#R"/><use transform="matrix(0.05,0,0,0.05,51.95,0)" xlink:href="#S"/><use transform="matrix(0.05,0,0,0.05,56.95,0)" xlink:href="#M"/></g><path fill="#333" d="M101-234c-31-9-42 10-38 44h38v23H63V0H32v-167H5v-23h27c-7-52 17-82 69-68v24" id="T"/><path fill="#333" d="M190 0L58-211 59 0H30v-248h39L202-35l-2-213h31V0h-41" id="U"/><path fill="#333" d="M141-36C126-15 110 5 73 4 37 3 15-17 15-53c-1-64 63-63 125-63 3-35-9-54-41-54-24 1-41 7-42 31l-33-3c5-37 33-52 76-52 45 0 72 20 72 64v82c-1 20 7 32 28 27v20c-31 9-61-2-59-35zM48-53c0 20 12 33 32 33 41-3 63-29 60-74-43 2-92-5-92 41" id="V"/><path fill="#333" d="M210-169c-67 3-38 105-44 169h-31v-121c0-29-5-50-35-48C34-165 62-65 56 0H25l-1-190h30c1 10-1 24 2 32 10-44 99-50 107 0 11-21 27-35 58-36 85-2 47 119 55 194h-31v-121c0-29-5-49-35-48" id="W"/><g id="d"><use transform="matrix(0.05,0,0,0.05,0,0)" xlink:href="#T"/><use transform="matrix(0.05,0,0,0.05,5,0)" xlink:href="#L"/><use transform="matrix(0.05,0,0,0.05,8.95,0)" xlink:href="#J"/><use transform="matrix(0.05,0,0,0.05,14.899999999999999,0)" xlink:href="#H"/><use transform="matrix(0.05,0,0,0.05,23.9,0)" xlink:href="#R"/><use transform="matrix(0.05,0,0,0.05,28.899999999999995,0)" xlink:href="#U"/><use transform="matrix(0.05,0,0,0.05,41.85,0)" xlink:href="#V"/><use transform="matrix(0.05,0,0,0.05,51.85,0)" xlink:href="#W"/><use transform="matrix(0.05,0,0,0.05,66.8,0)" xlink:href="#I"/></g><path fill="#333" d="M185-189c-5-48-123-54-124 2 14 75 158 14 163 119 3 78-121 87-175 55-17-10-28-26-33-46l33-7c5 56 141 63 141-1 0-78-155-14-162-118-5-82 145-84 179-34 5 7 8 16 11 25" id="X"/><path fill="#333" d="M117-194c89-4 53 116 60 194h-32v-121c0-31-8-49-39-48C34-167 62-67 57 0H25l-1-190h30c1 10-1 24 2 32 11-22 29-35 61-36" id="Y"/><path fill="#333" d="M177-190C167-65 218 103 67 71c-23-6-38-20-44-43l32-5c15 47 100 32 89-28v-30C133-14 115 1 83 1 29 1 15-40 15-95c0-56 16-97 71-98 29-1 48 16 59 35 1-10 0-23 2-32h30zM94-22c36 0 50-32 50-73 0-42-14-75-50-75-39 0-46 34-46 75s6 73 46 73" id="Z"/><g id="e"><use transform="matrix(0.05,0,0,0.05,0,0)" xlink:href="#X"/><use transform="matrix(0.05,0,0,0.05,12,0)" xlink:href="#R"/><use transform="matrix(0.05,0,0,0.05,17,0)" xlink:href="#J"/><use transform="matrix(0.05,0,0,0.05,22.95,0)" xlink:href="#L"/><use transform="matrix(0.05,0,0,0.05,26.899999999999995,0)" xlink:href="#Y"/><use transform="matrix(0.05,0,0,0.05,36.9,0)" xlink:href="#Z"/></g><path fill="#333" d="M24 0v-261h32V0H24" id="aa"/><g id="f"><use transform="matrix(0.05,0,0,0.05,0,0)" xlink:href="#aa"/><use transform="matrix(0.05,0,0,0.05,3.95,0)" xlink:href="#V"/><use transform="matrix(0.05,0,0,0.05,13.949999999999998,0)" xlink:href="#H"/><use transform="matrix(0.05,0,0,0.05,22.95,0)" xlink:href="#R"/><use transform="matrix(0.05,0,0,0.05,27.950000000000003,0)" xlink:href="#U"/><use transform="matrix(0.05,0,0,0.05,40.9,0)" xlink:href="#V"/><use transform="matrix(0.05,0,0,0.05,50.9,0)" xlink:href="#W"/><use transform="matrix(0.05,0,0,0.05,65.85,0)" xlink:href="#I"/></g><g id="g"><use transform="matrix(0.05,0,0,0.05,0,0)" xlink:href="#I"/><use transform="matrix(0.05,0,0,0.05,10,0)" xlink:href="#W"/><use transform="matrix(0.05,0,0,0.05,24.950000000000003,0)" xlink:href="#V"/><use transform="matrix(0.05,0,0,0.05,34.95,0)" xlink:href="#L"/><use transform="matrix(0.05,0,0,0.05,38.900000000000006,0)" xlink:href="#aa"/></g><path fill="#333" d="M115-194c55 1 70 41 70 98S169 2 115 4C84 4 66-9 55-30l1 105H24l-1-265h31l2 30c10-21 28-34 59-34zm-8 174c40 0 45-34 45-75s-6-73-45-74c-42 0-51 32-51 76 0 43 10 73 51 73" id="ab"/><path fill="#333" d="M206 0h-36l-40-164L89 0H53L-1-190h32L70-26l43-164h34l41 164 42-164h31" id="ac"/><path fill="#333" d="M100-194c62-1 85 37 85 99 1 63-27 99-86 99S16-35 15-95c0-66 28-99 85-99zM99-20c44 1 53-31 53-75 0-43-8-75-51-75s-53 32-53 75 10 74 51 75" id="ad"/><g id="h"><use transform="matrix(0.05,0,0,0.05,0,0)" xlink:href="#ab"/><use transform="matrix(0.05,0,0,0.05,10,0)" xlink:href="#V"/><use transform="matrix(0.05,0,0,0.05,20,0)" xlink:href="#H"/><use transform="matrix(0.05,0,0,0.05,29,0)" xlink:href="#H"/><use transform="matrix(0.05,0,0,0.05,38,0)" xlink:href="#ac"/><use transform="matrix(0.05,0,0,0.05,50.95,0)" xlink:href="#ad"/><use transform="matrix(0.05,0,0,0.05,60.95,0)" xlink:href="#J"/><use transform="matrix(0.05,0,0,0.05,66.9,0)" xlink:href="#M"/></g><path fill="#333" d="M108 0H70L1-190h34L89-25l56-165h34" id="ae"/><path fill="#333" d="M212-179c-10-28-35-45-73-45-59 0-87 40-87 99 0 60 29 101 89 101 43 0 62-24 78-52l27 14C228-24 195 4 139 4 59 4 22-46 18-125c-6-104 99-153 187-111 19 9 31 26 39 46" id="af"/><g id="i"><use transform="matrix(0.05,0,0,0.05,0,0)" xlink:href="#ae"/><use transform="matrix(0.05,0,0,0.05,9,0)" xlink:href="#I"/><use transform="matrix(0.05,0,0,0.05,19,0)" xlink:href="#J"/><use transform="matrix(0.05,0,0,0.05,24.95,0)" xlink:href="#L"/><use transform="matrix(0.05,0,0,0.05,28.899999999999995,0)" xlink:href="#T"/><use transform="matrix(0.05,0,0,0.05,33.9,0)" xlink:href="#L"/><use transform="matrix(0.05,0,0,0.05,37.85,0)" xlink:href="#Q"/><use transform="matrix(0.05,0,0,0.05,46.85,0)" xlink:href="#V"/><use transform="matrix(0.05,0,0,0.05,56.85,0)" xlink:href="#R"/><use transform="matrix(0.05,0,0,0.05,61.85,0)" xlink:href="#L"/><use transform="matrix(0.05,0,0,0.05,65.8,0)" xlink:href="#ad"/><use transform="matrix(0.05,0,0,0.05,75.8,0)" xlink:href="#Y"/><use transform="matrix(0.05,0,0,0.05,85.8,0)" xlink:href="#af"/><use transform="matrix(0.05,0,0,0.05,98.75,0)" xlink:href="#ad"/><use transform="matrix(0.05,0,0,0.05,108.75,0)" xlink:href="#M"/><use transform="matrix(0.05,0,0,0.05,118.75,0)" xlink:href="#I"/></g><path fill="#333" d="M30 0v-248h187v28H63v79h144v27H63v87h162V0H30" id="ag"/><path fill="#333" d="M137 0h-34L2-248h35l83 218 83-218h36" id="ah"/><g id="j"><use transform="matrix(0.05,0,0,0.05,0,0)" xlink:href="#L"/><use transform="matrix(0.05,0,0,0.05,3.95,0)" xlink:href="#H"/><use transform="matrix(0.05,0,0,0.05,12.949999999999998,0)" xlink:href="#ag"/><use transform="matrix(0.05,0,0,0.05,24.95,0)" xlink:href="#W"/><use transform="matrix(0.05,0,0,0.05,39.9,0)" xlink:href="#V"/><use transform="matrix(0.05,0,0,0.05,49.9,0)" xlink:href="#L"/><use transform="matrix(0.05,0,0,0.05,53.85,0)" xlink:href="#aa"/><use transform="matrix(0.05,0,0,0.05,57.800000000000004,0)" xlink:href="#ah"/><use transform="matrix(0.05,0,0,0.05,68.80000000000001,0)" xlink:href="#I"/><use transform="matrix(0.05,0,0,0.05,78.80000000000001,0)" xlink:href="#J"/><use transform="matrix(0.05,0,0,0.05,84.75000000000001,0)" xlink:href="#L"/><use transform="matrix(0.05,0,0,0.05,88.70000000000002,0)" xlink:href="#T"/><use transform="matrix(0.05,0,0,0.05,93.70000000000002,0)" xlink:href="#L"/><use transform="matrix(0.05,0,0,0.05,97.65000000000002,0)" xlink:href="#I"/><use transform="matrix(0.05,0,0,0.05,107.65000000000003,0)" xlink:href="#M"/></g><path fill="#333" d="M160-131c35 5 61 23 61 61C221 17 115-2 30 0v-248c76 3 177-17 177 60 0 33-19 50-47 57zm-97-11c50-1 110 9 110-42 0-47-63-36-110-37v79zm0 115c55-2 124 14 124-45 0-56-70-42-124-44v89" id="ai"/><g id="k"><use transform="matrix(0.05,0,0,0.05,0,0)" xlink:href="#ai"/><use transform="matrix(0.05,0,0,0.05,12,0)" xlink:href="#ad"/><use transform="matrix(0.05,0,0,0.05,22,0)" xlink:href="#ad"/><use transform="matrix(0.05,0,0,0.05,32,0)" xlink:href="#aa"/><use transform="matrix(0.05,0,0,0.05,35.95,0)" xlink:href="#I"/><use transform="matrix(0.05,0,0,0.05,45.95,0)" xlink:href="#V"/><use transform="matrix(0.05,0,0,0.05,55.95,0)" xlink:href="#Y"/></g><path fill="#333" d="M30 0v-248h33v221h125V0H30" id="aj"/><path fill="#333" d="M205 0l-28-72H64L36 0H1l101-248h38L239 0h-34zm-38-99l-47-123c-12 45-31 82-46 123h93" id="ak"/><g id="l"><use transform="matrix(0.05,0,0,0.05,0,0)" xlink:href="#aa"/><use transform="matrix(0.05,0,0,0.05,3.95,0)" xlink:href="#V"/><use transform="matrix(0.05,0,0,0.05,13.949999999999998,0)" xlink:href="#H"/><use transform="matrix(0.05,0,0,0.05,22.95,0)" xlink:href="#R"/><use transform="matrix(0.05,0,0,0.05,27.950000000000003,0)" xlink:href="#aj"/><use transform="matrix(0.05,0,0,0.05,37.95,0)" xlink:href="#ad"/><use transform="matrix(0.05,0,0,0.05,47.95,0)" xlink:href="#Z"/><use transform="matrix(0.05,0,0,0.05,57.95,0)" xlink:href="#L"/><use transform="matrix(0.05,0,0,0.05,61.900000000000006,0)" xlink:href="#Y"/><use transform="matrix(0.05,0,0,0.05,71.9,0)" xlink:href="#ak"/><use transform="matrix(0.05,0,0,0.05,83.9,0)" xlink:href="#R"/></g><path fill="#333" d="M30-248c118-7 216 8 213 122C240-48 200 0 122 0H30v-248zM63-27c89 8 146-16 146-99s-60-101-146-95v194" id="al"/><g id="m"><use transform="matrix(0.05,0,0,0.05,0,0)" xlink:href="#al"/><use transform="matrix(0.05,0,0,0.05,12.950000000000001,0)" xlink:href="#V"/><use transform="matrix(0.05,0,0,0.05,22.950000000000003,0)" xlink:href="#R"/><use transform="matrix(0.05,0,0,0.05,27.950000000000003,0)" xlink:href="#I"/></g><g id="n"><use transform="matrix(0.05,0,0,0.05,0,0)" xlink:href="#Q"/><use transform="matrix(0.05,0,0,0.05,9,0)" xlink:href="#J"/><use transform="matrix(0.05,0,0,0.05,14.949999999999998,0)" xlink:href="#I"/><use transform="matrix(0.05,0,0,0.05,24.95,0)" xlink:href="#V"/><use transform="matrix(0.05,0,0,0.05,34.95,0)" xlink:href="#R"/><use transform="matrix(0.05,0,0,0.05,39.95,0)" xlink:href="#I"/><use transform="matrix(0.05,0,0,0.05,49.95,0)" xlink:href="#M"/><use transform="matrix(0.05,0,0,0.05,59.95,0)" xlink:href="#ak"/><use transform="matrix(0.05,0,0,0.05,71.95,0)" xlink:href="#R"/></g><path fill="#333" d="M84 4C-5 8 30-112 23-190h32v120c0 31 7 50 39 49 72-2 45-101 50-169h31l1 190h-30c-1-10 1-25-2-33-11 22-28 36-60 37" id="am"/><g id="o"><use transform="matrix(0.05,0,0,0.05,0,0)" xlink:href="#am"/><use transform="matrix(0.05,0,0,0.05,10,0)" xlink:href="#ab"/><use transform="matrix(0.05,0,0,0.05,20,0)" xlink:href="#M"/><use transform="matrix(0.05,0,0,0.05,30,0)" xlink:href="#V"/><use transform="matrix(0.05,0,0,0.05,40,0)" xlink:href="#R"/><use transform="matrix(0.05,0,0,0.05,45,0)" xlink:href="#I"/><use transform="matrix(0.05,0,0,0.05,55,0)" xlink:href="#M"/><use transform="matrix(0.05,0,0,0.05,65,0)" xlink:href="#ak"/><use transform="matrix(0.05,0,0,0.05,77,0)" xlink:href="#R"/></g><path fill="#333" d="M240 0l2-218c-23 76-54 145-80 218h-23L58-218 59 0H30v-248h44l77 211c21-75 51-140 76-211h43V0h-30" id="an"/><path fill="#333" d="M106-169C34-169 62-67 57 0H25v-261h32l-1 103c12-21 28-36 61-36 89 0 53 116 60 194h-32v-121c2-32-8-49-39-48" id="ao"/><g id="p"><use transform="matrix(0.05,0,0,0.05,0,0)" xlink:href="#an"/><use transform="matrix(0.05,0,0,0.05,14.950000000000001,0)" xlink:href="#I"/><use transform="matrix(0.05,0,0,0.05,24.950000000000003,0)" xlink:href="#J"/><use transform="matrix(0.05,0,0,0.05,30.900000000000002,0)" xlink:href="#Q"/><use transform="matrix(0.05,0,0,0.05,39.900000000000006,0)" xlink:href="#ao"/><use transform="matrix(0.05,0,0,0.05,49.900000000000006,0)" xlink:href="#V"/><use transform="matrix(0.05,0,0,0.05,59.900000000000006,0)" xlink:href="#Y"/><use transform="matrix(0.05,0,0,0.05,69.9,0)" xlink:href="#R"/></g><g id="q"><use transform="matrix(0.05,0,0,0.05,0,0)" xlink:href="#Y"/><use transform="matrix(0.05,0,0,0.05,10,0)" xlink:href="#V"/><use transform="matrix(0.05,0,0,0.05,20,0)" xlink:href="#W"/><use transform="matrix(0.05,0,0,0.05,34.95,0)" xlink:href="#I"/></g><path fill="#333" d="M143 0L79-87 56-68V0H24v-261h32v163l83-92h37l-77 82L181 0h-38" id="ap"/><g id="r"><use transform="matrix(0.05,0,0,0.05,0,0)" xlink:href="#ai"/><use transform="matrix(0.05,0,0,0.05,12,0)" xlink:href="#ad"/><use transform="matrix(0.05,0,0,0.05,22,0)" xlink:href="#ad"/><use transform="matrix(0.05,0,0,0.05,32,0)" xlink:href="#ap"/><use transform="matrix(0.05,0,0,0.05,41,0)" xlink:href="#L"/><use transform="matrix(0.05,0,0,0.05,44.95,0)" xlink:href="#Y"/><use transform="matrix(0.05,0,0,0.05,54.95,0)" xlink:href="#Z"/></g><g id="s"><use transform="matrix(0.05,0,0,0.05,0,0)" xlink:href="#am"/><use transform="matrix(0.05,0,0,0.05,10,0)" xlink:href="#H"/><use transform="matrix(0.05,0,0,0.05,19,0)" xlink:href="#I"/><use transform="matrix(0.05,0,0,0.05,29,0)" xlink:href="#J"/><use transform="matrix(0.05,0,0,0.05,34.95,0)" xlink:href="#S"/><use transform="matrix(0.05,0,0,0.05,39.95,0)" xlink:href="#M"/></g><g id="t"><use transform="matrix(0.05,0,0,0.05,0,0)" xlink:href="#H"/><use transform="matrix(0.05,0,0,0.05,9,0)" xlink:href="#I"/><use transform="matrix(0.05,0,0,0.05,19,0)" xlink:href="#J"/><use transform="matrix(0.05,0,0,0.05,24.95,0)" xlink:href="#ae"/><use transform="matrix(0.05,0,0,0.05,33.95,0)" xlink:href="#L"/><use transform="matrix(0.05,0,0,0.05,37.900000000000006,0)" xlink:href="#Q"/><use transform="matrix(0.05,0,0,0.05,46.900000000000006,0)" xlink:href="#I"/><use transform="matrix(0.05,0,0,0.05,56.900000000000006,0)" xlink:href="#S"/><use transform="matrix(0.05,0,0,0.05,61.900000000000006,0)" xlink:href="#M"/></g><g id="u"><use transform="matrix(0.05,0,0,0.05,0,0)" xlink:href="#H"/><use transform="matrix(0.05,0,0,0.05,9,0)" xlink:href="#R"/><use transform="matrix(0.05,0,0,0.05,14,0)" xlink:href="#V"/><use transform="matrix(0.05,0,0,0.05,24,0)" xlink:href="#R"/><use transform="matrix(0.05,0,0,0.05,29,0)" xlink:href="#am"/><use transform="matrix(0.05,0,0,0.05,39,0)" xlink:href="#H"/></g><path fill="#333" d="M30-248c87 1 191-15 191 75 0 78-77 80-158 76V0H30v-248zm33 125c57 0 124 11 124-50 0-59-68-47-124-48v98" id="aq"/><path fill="#333" d="M179-190L93 31C79 59 56 82 12 73V49c39 6 53-20 64-50L1-190h34L92-34l54-156h33" id="ar"/><g id="v"><use transform="matrix(0.05,0,0,0.05,0,0)" xlink:href="#aq"/><use transform="matrix(0.05,0,0,0.05,12,0)" xlink:href="#V"/><use transform="matrix(0.05,0,0,0.05,22,0)" xlink:href="#ar"/><use transform="matrix(0.05,0,0,0.05,31,0)" xlink:href="#W"/><use transform="matrix(0.05,0,0,0.05,45.95,0)" xlink:href="#I"/><use transform="matrix(0.05,0,0,0.05,55.95,0)" xlink:href="#Y"/><use transform="matrix(0.05,0,0,0.05,65.95,0)" xlink:href="#R"/></g><g id="w"><use transform="matrix(0.05,0,0,0.05,0,0)" xlink:href="#O"/><use transform="matrix(0.05,0,0,0.05,10,0)" xlink:href="#ad"/><use transform="matrix(0.05,0,0,0.05,20,0)" xlink:href="#ad"/><use transform="matrix(0.05,0,0,0.05,30,0)" xlink:href="#ap"/><use transform="matrix(0.05,0,0,0.05,39,0)" xlink:href="#L"/><use transform="matrix(0.05,0,0,0.05,42.95,0)" xlink:href="#Y"/><use transform="matrix(0.05,0,0,0.05,52.95,0)" xlink:href="#Z"/><use transform="matrix(0.05,0,0,0.05,62.95,0)" xlink:href="#S"/><use transform="matrix(0.05,0,0,0.05,67.95,0)" xlink:href="#M"/></g><g id="x"><use transform="matrix(0.05,0,0,0.05,0,0)" xlink:href="#W"/><use transform="matrix(0.05,0,0,0.05,14.950000000000001,0)" xlink:href="#I"/><use transform="matrix(0.05,0,0,0.05,24.950000000000003,0)" xlink:href="#R"/><use transform="matrix(0.05,0,0,0.05,29.950000000000003,0)" xlink:href="#ao"/><use transform="matrix(0.05,0,0,0.05,39.95,0)" xlink:href="#ad"/><use transform="matrix(0.05,0,0,0.05,49.95,0)" xlink:href="#M"/></g><g id="y"><use transform="matrix(0.05,0,0,0.05,0,0)" xlink:href="#V"/><use transform="matrix(0.05,0,0,0.05,10,0)" xlink:href="#W"/><use transform="matrix(0.05,0,0,0.05,24.950000000000003,0)" xlink:href="#ad"/><use transform="matrix(0.05,0,0,0.05,34.95,0)" xlink:href="#am"/><use transform="matrix(0.05,0,0,0.05,44.95,0)" xlink:href="#Y"/><use transform="matrix(0.05,0,0,0.05,54.95,0)" xlink:href="#R"/></g><g id="z"><use transform="matrix(0.05,0,0,0.05,0,0)" xlink:href="#U"/><use transform="matrix(0.05,0,0,0.05,12.950000000000001,0)" xlink:href="#am"/><use transform="matrix(0.05,0,0,0.05,22.950000000000003,0)" xlink:href="#W"/><use transform="matrix(0.05,0,0,0.05,37.900000000000006,0)" xlink:href="#O"/><use transform="matrix(0.05,0,0,0.05,47.900000000000006,0)" xlink:href="#I"/><use transform="matrix(0.05,0,0,0.05,57.900000000000006,0)" xlink:href="#J"/></g><path fill="#333" d="M233-177c-1 41-23 64-60 70L243 0h-38l-65-103H63V0H30v-248c88 3 205-21 203 71zM63-129c60-2 137 13 137-47 0-61-80-42-137-45v92" id="as"/><g id="A"><use transform="matrix(0.05,0,0,0.05,0,0)" xlink:href="#as"/><use transform="matrix(0.05,0,0,0.05,12.950000000000001,0)" xlink:href="#I"/><use transform="matrix(0.05,0,0,0.05,22.950000000000003,0)" xlink:href="#ae"/><use transform="matrix(0.05,0,0,0.05,31.950000000000003,0)" xlink:href="#L"/><use transform="matrix(0.05,0,0,0.05,35.900000000000006,0)" xlink:href="#I"/><use transform="matrix(0.05,0,0,0.05,45.900000000000006,0)" xlink:href="#ac"/></g><g id="B"><use transform="matrix(0.05,0,0,0.05,0,0)" xlink:href="#J"/><use transform="matrix(0.05,0,0,0.05,5.95,0)" xlink:href="#V"/><use transform="matrix(0.05,0,0,0.05,15.949999999999998,0)" xlink:href="#R"/><use transform="matrix(0.05,0,0,0.05,20.95,0)" xlink:href="#L"/><use transform="matrix(0.05,0,0,0.05,24.9,0)" xlink:href="#Y"/><use transform="matrix(0.05,0,0,0.05,34.9,0)" xlink:href="#Z"/></g><g id="C"><use transform="matrix(0.05,0,0,0.05,0,0)" xlink:href="#Q"/><use transform="matrix(0.05,0,0,0.05,9,0)" xlink:href="#ad"/><use transform="matrix(0.05,0,0,0.05,19,0)" xlink:href="#W"/><use transform="matrix(0.05,0,0,0.05,33.95,0)" xlink:href="#W"/><use transform="matrix(0.05,0,0,0.05,48.900000000000006,0)" xlink:href="#I"/><use transform="matrix(0.05,0,0,0.05,58.900000000000006,0)" xlink:href="#Y"/><use transform="matrix(0.05,0,0,0.05,68.9,0)" xlink:href="#R"/></g><g id="D"><use transform="matrix(0.05,0,0,0.05,0,0)" xlink:href="#X"/><use transform="matrix(0.05,0,0,0.05,12,0)" xlink:href="#I"/><use transform="matrix(0.05,0,0,0.05,22,0)" xlink:href="#J"/><use transform="matrix(0.05,0,0,0.05,27.950000000000003,0)" xlink:href="#ae"/><use transform="matrix(0.05,0,0,0.05,36.95,0)" xlink:href="#L"/><use transform="matrix(0.05,0,0,0.05,40.900000000000006,0)" xlink:href="#Q"/><use transform="matrix(0.05,0,0,0.05,49.900000000000006,0)" xlink:href="#I"/></g><g id="E"><use transform="matrix(0.05,0,0,0.05,0,0)" xlink:href="#W"/><use transform="matrix(0.05,0,0,0.05,14.950000000000001,0)" xlink:href="#I"/><use transform="matrix(0.05,0,0,0.05,24.950000000000003,0)" xlink:href="#J"/><use transform="matrix(0.05,0,0,0.05,30.900000000000002,0)" xlink:href="#Q"/><use transform="matrix(0.05,0,0,0.05,39.900000000000006,0)" xlink:href="#ao"/><use transform="matrix(0.05,0,0,0.05,49.900000000000006,0)" xlink:href="#V"/><use transform="matrix(0.05,0,0,0.05,59.900000000000006,0)" xlink:href="#Y"/><use transform="matrix(0.05,0,0,0.05,69.9,0)" xlink:href="#R"/><use transform="matrix(0.05,0,0,0.05,74.9,0)" xlink:href="#S"/><use transform="matrix(0.05,0,0,0.05,79.9,0)" xlink:href="#M"/></g><g id="F"><use transform="matrix(0.05,0,0,0.05,0,0)" xlink:href="#ab"/><use transform="matrix(0.05,0,0,0.05,10,0)" xlink:href="#J"/><use transform="matrix(0.05,0,0,0.05,15.949999999999998,0)" xlink:href="#L"/><use transform="matrix(0.05,0,0,0.05,19.9,0)" xlink:href="#Q"/><use transform="matrix(0.05,0,0,0.05,28.899999999999995,0)" xlink:href="#I"/></g></defs></g></svg>